<svg width="671" height="473" viewBox="0 0 671 473" fill="none" xmlns="http://www.w3.org/2000/svg">
<path d="M427.987 126.412C427.987 71.5817 472.53 27.1328 527.477 27.1328C582.423 27.1328 626.966 71.5817 626.966 126.412C626.966 181.243 582.423 225.692 527.477 225.692C472.53 225.692 427.987 181.243 427.987 126.412Z" fill="#5BAFFF"/>
<path d="M531.111 52.9698C521.882 50.8857 513.203 52.4418 506.589 58.1227C498.737 64.8721 495.67 79.396 506.939 81.8601C507.597 82.0035 507.901 82.4217 508.338 82.1401C509.267 82.5694 510.261 82.8174 511.323 83.1761C513.64 83.963 515.83 85.0772 517.805 86.5298C521.867 89.5275 524.071 93.8917 527.048 97.8311C531.658 103.935 538.377 109.016 546.437 107.453C546.506 107.44 546.568 107.419 546.623 107.397C547.237 107.67 548.034 110.082 548.07 109.242C548.884 91.4473 560.704 59.6516 531.111 52.9698Z" fill="#1A2745"/>
<path d="M487.282 135.772C486.661 128.721 485.938 121.681 485.132 114.649C485.107 114.429 485.005 114.266 484.866 114.151C484.84 113.719 485.589 112.212 485.1 112.466C467.353 121.738 463.852 132.993 450.024 149.072C437.269 163.901 431.053 165.215 424.183 176.928C423.949 176.908 429.169 201.293 432.652 203.57C448.659 208.855 481.015 174.506 484.866 167.744C487.219 163.609 487.897 160.125 488.513 155.232C489.299 149.004 487.84 142.014 487.282 135.772Z" fill="#FEEED6"/>
<path d="M509.894 106.852H549.457C549.457 106.852 560.868 202.7 562.41 219.401C553.586 223.283 529.891 229.133 504.063 222.949C504.063 199.96 509.894 106.852 509.894 106.852Z" fill="white"/>
<path d="M519.428 101.096C511.436 102.157 499.772 105.622 489.877 110.099C484.866 112.368 479.671 115.466 475.383 118.929C473.22 120.675 464.353 130.268 464.137 132.291C463.941 134.125 465.095 135.983 465.78 137.616C470.1 147.943 475.859 173.742 475.783 176.108C475.787 200.598 475.787 206.763 475.787 211.255C482.508 216 494.882 220.79 505.434 223.273C505.988 215.068 506.673 197.837 507.263 185.067C507.859 172.033 508.804 159.01 510.307 146.047C511.931 132.016 512.572 116.643 519.555 104.07C519.606 103.978 521.268 100.851 519.428 101.096Z" fill="#FEEED6"/>
<path d="M520.603 100.366C520.502 100.294 520.368 100.26 520.223 100.321C512.021 103.794 504.384 108.491 497.541 114.18C497.16 114.498 496.437 114.968 496.621 115.566C496.672 115.72 496.786 115.843 496.894 115.96C498.194 117.337 504.131 122.327 504.613 122.645C505.101 122.962 505.038 123.753 504.48 123.913C500.122 125.163 491.572 128.355 490.735 129.115C490.119 129.679 490.113 130.333 490.17 131.125C490.278 132.773 490.563 134.425 490.766 136.063C491.16 139.268 491.572 142.472 492.029 145.67C493.931 158.995 497.414 171.792 501.035 184.732C502.279 189.167 504.004 196.934 505.082 201.792C505.234 202.496 506.268 202.416 506.306 201.696C507.036 188.309 509.364 147.933 512.966 126.537C513.55 123.074 514.267 119.639 515.504 116.346C516.823 112.84 518.599 109.532 520.362 106.236C520.432 106.105 520.413 105.983 520.356 105.885C520.47 104.166 520.717 102.473 521.111 100.794C521.187 100.464 520.838 100.276 520.603 100.366Z" fill="#FDE3BB"/>
<path d="M541.455 108.042C541.455 107.919 541.436 107.788 541.379 107.647C537.516 97.7296 534.706 87.4962 532.962 76.9994C532.949 76.9095 532.924 76.8284 532.892 76.755C532.727 76.1056 532.049 75.5929 531.332 76.0689C525.008 80.278 518.355 83.889 511.377 86.9037C510.16 87.429 511.079 89.131 512.265 88.8608C512.227 89.0715 512.259 89.3025 512.373 89.5386C515.589 96.039 516.629 103.299 519.274 110.017C519.255 110.033 519.236 110.045 519.223 110.062C516.166 113.408 520.657 120.23 523.162 120.288C529.353 120.431 536.032 113.009 541.106 109.525C541.664 109.145 541.696 108.511 541.455 108.042Z" fill="#FAB695"/>
<path d="M515.153 96.7723L527.599 93.1602C527.599 93.1602 524.251 100.295 516.849 102.61C516.224 100.13 515.153 96.7723 515.153 96.7723Z" fill="#F19467"/>
<path d="M528.89 59.4763C523.677 53.2408 515.546 53.3224 510.153 57.8967C503.15 63.832 503.327 75.4342 505.207 84.8416C506.316 90.4038 507.285 95.8025 512.939 96.8954C517.226 97.7241 521.468 96.5486 525.469 95.3637C528.85 94.3625 530.662 92.519 531.314 88.6554C533.038 78.4902 535.526 68.8551 528.89 59.4763Z" fill="#FAB695"/>
<path d="M513.427 76.9102L510.906 81.9213L513.544 83.0367L513.427 76.9102Z" fill="#EE8A6C"/>
<path d="M581.082 210.055C580.623 207.794 580.521 207.438 579.202 194.498C579.158 193.604 579.107 192.71 579.069 191.816C578.377 177.405 577.445 163.007 576.138 148.639C575.155 137.802 576.57 124.84 567.315 117.349C556.361 108.485 538.731 100.191 538.547 101.206C533.391 129.637 533.13 153.798 536.213 187.287C538.084 207.609 538.922 215.591 541.005 224.829C554.774 222.864 568.339 218.211 581.082 210.055Z" fill="#FEEED6"/>
<path d="M559.173 137.465C561.44 131.29 563.796 125.149 566.223 119.036C566.299 118.845 566.43 118.723 566.583 118.653C566.711 118.272 566.405 116.739 566.781 117.086C580.453 129.687 580.864 140.628 589.369 158.389C597.216 174.77 599.616 180.651 603.782 190.125C594.907 200.871 583.725 208.592 579.157 211.265C569.995 205.797 554.929 178.371 553.114 171.376C552.006 167.098 552.717 159.162 553.352 154.623C554.156 148.847 557.159 142.929 559.173 137.465Z" fill="#FEEED6"/>
<path d="M538.066 103.937C531.127 137.199 535.605 184.755 536.785 195.727C536.848 196.295 537.647 196.376 537.819 195.833C539.366 191.074 540.977 184.409 542.588 180.809C548.075 168.542 559.061 137.291 559.923 134.178C560.367 132.587 560.894 130.995 561.243 129.383C561.414 128.607 561.509 127.96 560.976 127.309C560.266 126.436 552.28 122.023 548.151 120.146C547.625 119.907 547.682 119.114 548.208 118.871C548.735 118.629 555.344 114.565 556.828 113.394C556.955 113.294 557.082 113.189 557.158 113.045C557.431 112.48 556.784 111.909 556.454 111.539C550.517 104.907 543.667 99.1387 536.062 94.498C535.928 94.4176 535.795 94.4309 535.681 94.4879C535.459 94.3631 538.098 103.792 538.066 103.937Z" fill="#FDE3BB"/>
<path d="M546.875 97.2108C545.238 89.353 545.251 81.0358 542.943 73.3502C542.941 73.3357 542.933 73.3218 542.932 73.3073C542.313 68.7268 539.609 64.5335 536.891 60.6324C533.196 55.3227 527.285 52.8978 521.209 52.375C521.001 52.4021 520.674 52.4457 520.467 52.4728C519.451 52.8288 518.431 53.1559 517.405 53.4673C517.374 53.4767 517.342 53.4812 517.31 53.4818C513.665 53.553 509.361 56.2098 507.288 58.1009C503.416 61.6355 501.222 65.3046 500.302 70.4232C500.175 71.1268 502.504 73.8181 502.858 72.4563C504.389 66.6253 508.649 62.5785 513.518 59.9589C513.778 59.8171 514.091 60.0191 514.089 60.319C514.108 68.1846 525.009 73.5875 532.965 78.4145C534.01 79.0492 534.688 80.1462 534.778 81.3642C535.126 86.0373 534.187 92.4281 535.465 96.9593C537.323 103.533 539.865 110.056 546.178 113.382C546.374 113.489 546.568 113.52 546.745 113.505C546.892 113.566 547.061 113.599 547.251 113.586C549.246 113.455 549.217 111.579 549.131 109.967C548.902 105.718 547.738 101.367 546.875 97.2108Z" fill="#1A2745"/>
<path d="M537.455 75.3246C534.973 73.7191 532.923 76.3502 532.003 78.7386C531.467 80.135 531.045 81.6379 531.077 83.1663C531.117 84.9613 532.006 87.5263 534.065 86.5831C535.473 85.9392 536.658 84.3455 537.441 83.002C538.713 80.815 540.216 77.112 537.455 75.3246Z" fill="#FAB695"/>
<path d="M562.549 137.707C558.287 124.591 555.449 112.203 547.609 100.596C547.339 100.191 539.438 99.4577 538.98 99.6594C537.6 100.263 531.937 131.606 542.361 153.588C542.435 153.749 542.506 153.882 542.611 153.976C542.725 154.228 543 154.302 543.33 154.476C548.897 157.414 561.233 156.856 565.768 152.875C567.186 151.632 563.73 141.34 562.549 137.707Z" fill="#1A2745"/>
<path d="M402.94 122.753C398.758 116.438 393.864 110.056 389.259 105.558C387.011 103.364 379.051 98.7658 373.594 97.9709C372.066 97.7484 371.758 99.2844 372.036 100.336C372.737 103.027 375.982 104.707 378.363 105.712C378.725 105.866 379.632 106.12 379.342 106.356C377.196 108.122 377.154 109.848 377.051 111.171C374.973 112.699 373.891 113.921 373.782 116.516C371.848 118.774 370.833 119.943 373.051 122.802C374.58 124.768 377.124 126.037 379.741 126.745C382.998 130.812 386.853 134.305 391.241 137.146C391.416 137.4 391.694 137.584 392.111 137.602C395.266 137.737 398.607 134.052 400.154 131.662C402.233 128.447 403.357 123.384 402.94 122.753Z" fill="#FAB695"/>
<path d="M393.627 111.246C391.023 109.274 388.007 107.238 384.889 106.284C382.804 105.643 380.919 106.954 382.061 109.204C383.106 111.28 385.499 112.173 387.288 113.604C387.131 113.62 386.98 113.727 386.986 113.932C387.022 115.651 385.705 117.083 383.844 116.613C382.871 116.366 382.164 115.59 381.463 114.913C380.308 113.801 379.16 112.681 378.012 111.565C377.68 111.242 377.22 111.734 377.553 112.056C378.779 113.247 379.994 114.452 381.233 115.628C382.115 116.462 383.022 117.26 384.26 117.372C384.611 117.404 384.943 117.38 385.246 117.316C385.354 119.941 382.907 122.606 380.133 121.271C378.32 120.401 376.803 119.021 375.607 117.416C375.329 117.049 374.749 117.397 375.027 117.767C376.465 119.695 379.281 122.58 381.861 122.406C382 122.399 382.133 122.379 382.26 122.356C382.284 123.033 382.2 123.685 381.964 124.311C381.716 124.974 381.263 125.95 380.508 126.117C380.079 126.211 380.308 126.881 380.737 126.785C381.577 126.6 382.115 125.71 382.454 124.986C382.865 124.11 383.016 123.153 382.949 122.166C384.841 121.456 386.025 119.316 385.941 117.319C385.941 117.232 385.904 117.168 385.862 117.116C387.022 116.588 387.705 115.346 387.681 113.94C388.358 114.548 388.914 115.26 389.228 116.192C389.875 118.145 389.095 120.237 389.385 122.232C389.603 123.724 390.165 125.099 390.975 126.401C391.216 126.791 391.797 126.442 391.555 126.051C390.654 124.601 390.08 123.058 389.996 121.388C389.935 120.197 390.177 119.038 390.153 117.852C390.11 115.685 389.029 114.092 387.294 112.745C386.249 111.93 385.076 111.288 384.055 110.438C383.517 109.99 382.641 109.24 382.508 108.566C382.006 105.928 384.43 106.813 385.445 107.218C388.195 108.313 390.793 109.939 393.168 111.738C393.531 112.013 393.99 111.526 393.627 111.246Z" fill="#DB703C"/>
<path d="M441.341 174.289C434.529 163.725 418.323 141.957 404.4 123.143C404.045 122.661 403.392 122.502 402.846 122.758C391.416 128.162 387.072 132.488 385.201 134.587C384.954 134.865 384.846 135.234 384.916 135.6C386.552 144.033 400.593 181.287 420.491 195.129C424.772 198.113 425.647 207.545 443.534 198.797C443.534 198.797 444.836 179.704 441.341 174.289Z" fill="white"/>
<path d="M446.034 176.098C439.222 165.534 425.062 147.62 411.14 128.806C410.785 128.324 410.131 128.167 409.586 128.422C398.156 133.826 389.117 143.008 387.246 145.108C386.999 145.385 386.891 145.754 386.961 146.121C388.597 154.554 400.592 187.951 420.489 201.795C424.771 204.778 430.34 209.353 448.227 200.604C448.227 200.604 449.529 181.513 446.034 176.098Z" fill="#FEEED6"/>
<path d="M521.886 76.001C522.057 75.7345 522.174 75.4385 522.211 75.1752C522.296 74.5605 522.382 73.5774 521.875 73.0358C521.682 72.8281 521.43 72.7242 521.172 72.6965C519.761 72.5501 519.171 74.2292 519.361 75.354C519.423 75.7168 519.562 76.0871 519.838 76.3648C520.633 77.1714 521.445 76.6869 521.886 76.001Z" fill="#361F1B"/>
<path d="M507.988 75.6161C508.148 75.3673 508.26 75.0896 508.293 74.8439C508.381 74.2682 508.461 73.3499 507.99 72.8456C507.811 72.6522 507.578 72.5553 507.334 72.5315C506.026 72.3976 505.476 73.9677 505.646 75.0189C505.699 75.3577 505.829 75.7022 506.084 75.9616C506.823 76.7128 507.58 76.258 507.988 75.6161Z" fill="#361F1B"/>
<path d="M517.304 87.0124C516.943 86.6522 515.839 86.7072 515.522 86.7205C514.404 86.7674 513.288 86.7594 512.173 86.6966C511.512 86.659 509.847 86.1322 510.086 87.1808C510.415 88.6154 511.722 89.1908 513.133 89.2113C514.384 89.2287 517.102 88.8703 517.411 87.3808C517.44 87.2252 517.396 87.1056 517.304 87.0124Z" fill="white"/>
<path d="M475.345 157.346C475.313 156.881 474.577 156.877 474.609 157.346C475.104 164.685 475.376 172.034 475.421 179.39C475.427 179.858 476.157 179.859 476.15 179.39C476.106 172.034 475.833 164.685 475.345 157.346Z" fill="#F9D49D"/>
<path d="M571.017 190.217C570.827 189.791 570.135 190.039 570.326 190.469C573.314 197.193 576.098 204.003 578.669 210.895C578.836 211.333 579.522 211.085 579.354 210.646C576.783 203.752 573.999 196.943 571.017 190.217Z" fill="#F9D49D"/>
<path d="M546.838 103.267C544.382 104.518 541.683 104.617 539.156 103.515C538.723 103.327 538.42 103.99 538.853 104.178C541.546 105.35 544.478 105.281 547.104 103.947C547.516 103.736 547.257 103.054 546.838 103.267Z" fill="#FEEED6"/>
<path d="M607.338 416.047H49.9027C46.8018 416.047 44.2881 418.217 44.2881 420.894C44.2881 423.571 46.8018 425.741 49.9027 425.741H607.338C610.438 425.741 612.952 423.571 612.952 420.894C612.952 418.217 610.438 416.047 607.338 416.047Z" fill="#319AFF"/>
<path d="M512.209 231.086H507.725V259.425H512.209V231.086Z" fill="#C0D9EF"/>
<path d="M552.413 230.344H431.034C429.177 230.344 427.671 231.846 427.671 233.7C427.671 235.553 429.177 237.056 431.034 237.056H552.413C554.271 237.056 555.776 235.553 555.776 233.7C555.776 231.846 554.271 230.344 552.413 230.344Z" fill="#C0D9EF"/>
<path d="M501.597 258.316L481.412 275.981L484.484 279.478L504.669 261.813L501.597 258.316Z" fill="#C0D9EF"/>
<path d="M518.614 258.234L515.542 261.73L535.727 279.395L538.8 275.899L518.614 258.234Z" fill="#C0D9EF"/>
<path d="M539.334 278.13L523.443 297.003C523.039 297.451 522.477 297.725 521.875 297.767C521.272 297.809 520.677 297.616 520.214 297.229C519.752 296.842 519.458 296.291 519.395 295.691C519.331 295.092 519.504 294.492 519.875 294.017L535.766 275.145L539.334 278.13Z" fill="#C0D9EF"/>
<path d="M531.243 277.087C531.241 277.938 531.493 278.771 531.965 279.48C532.438 280.188 533.111 280.741 533.899 281.067C534.686 281.394 535.554 281.48 536.39 281.315C537.227 281.149 537.996 280.739 538.599 280.137C539.202 279.536 539.613 278.768 539.779 277.933C539.945 277.098 539.858 276.233 539.531 275.447C539.204 274.661 538.65 273.989 537.94 273.517C537.23 273.045 536.395 272.795 535.542 272.797C534.402 272.797 533.309 273.249 532.502 274.053C531.696 274.858 531.243 275.949 531.243 277.087Z" fill="#E5F1FB"/>
<path d="M517.351 267.713H502.446C500.553 267.71 498.738 266.959 497.399 265.625C496.06 264.29 495.305 262.481 495.3 260.592C495.305 258.702 496.059 256.892 497.398 255.556C498.737 254.219 500.552 253.466 502.446 253.461H517.351C519.245 253.466 521.059 254.219 522.398 255.556C523.737 256.892 524.492 258.702 524.497 260.592C524.492 262.481 523.737 264.29 522.398 265.625C521.059 266.959 519.244 267.71 517.351 267.713Z" fill="#C0D9EF"/>
<path d="M505.477 260.589C505.467 261.234 505.266 261.864 504.899 262.396C504.532 262.929 504.016 263.342 503.415 263.582C502.814 263.823 502.155 263.881 501.521 263.749C500.887 263.617 500.306 263.301 499.851 262.841C499.397 262.38 499.089 261.796 498.966 261.161C498.843 260.527 498.911 259.87 499.161 259.274C499.411 258.678 499.832 258.169 500.371 257.811C500.91 257.452 501.544 257.262 502.191 257.262C502.626 257.264 503.056 257.353 503.457 257.521C503.857 257.69 504.221 257.935 504.526 258.245C504.831 258.554 505.072 258.919 505.235 259.322C505.398 259.725 505.48 260.155 505.477 260.589Z" fill="#E5F1FB"/>
<path d="M520.929 260.589C520.919 261.234 520.718 261.864 520.351 262.396C519.985 262.929 519.468 263.342 518.867 263.582C518.266 263.823 517.607 263.881 516.973 263.749C516.339 263.617 515.758 263.301 515.304 262.841C514.849 262.38 514.541 261.796 514.418 261.161C514.295 260.527 514.363 259.87 514.613 259.274C514.863 258.678 515.284 258.169 515.823 257.811C516.362 257.452 516.996 257.262 517.643 257.262C518.078 257.264 518.508 257.353 518.909 257.521C519.309 257.69 519.673 257.935 519.978 258.245C520.283 258.554 520.524 258.919 520.687 259.322C520.85 259.725 520.932 260.155 520.929 260.589Z" fill="#E5F1FB"/>
<path d="M480.89 278.13L496.78 297.003C497.184 297.451 497.746 297.725 498.349 297.767C498.951 297.809 499.546 297.616 500.009 297.229C500.472 296.842 500.766 296.291 500.829 295.691C500.892 295.092 500.72 294.492 500.348 294.017L484.458 275.145L480.89 278.13Z" fill="#C0D9EF"/>
<path d="M488.982 277.087C488.984 277.938 488.733 278.771 488.26 279.48C487.787 280.188 487.114 280.741 486.327 281.067C485.539 281.394 484.672 281.48 483.835 281.315C482.998 281.149 482.23 280.739 481.626 280.137C481.023 279.536 480.613 278.768 480.447 277.933C480.281 277.098 480.367 276.233 480.694 275.447C481.021 274.661 481.575 273.989 482.285 273.517C482.995 273.045 483.83 272.795 484.683 272.797C485.823 272.797 486.917 273.249 487.723 274.053C488.529 274.858 488.982 275.949 488.982 277.087Z" fill="#E5F1FB"/>
<g filter="url(#filter0_d_2870_125289)">
<path d="M538.909 308.78L536.341 339.512C536.307 339.903 536.193 340.283 536.006 340.628C535.819 340.972 535.563 341.276 535.254 341.517L535.161 341.6C534.624 342.022 533.959 342.249 533.276 342.241L482.699 342.076C482.049 342.08 481.42 341.848 480.928 341.424C480.899 341.402 480.874 341.374 480.855 341.341C480.575 341.081 480.359 340.759 480.226 340.399C480.093 340.04 480.046 339.655 480.089 339.275L482.647 308.542C482.71 307.84 483.035 307.188 483.558 306.713C483.787 306.496 484.049 306.318 484.335 306.186C484.769 305.968 485.247 305.855 485.733 305.855L536.321 306.021C536.71 306.018 537.095 306.097 537.451 306.252C537.808 306.406 538.128 306.634 538.392 306.92C538.607 307.175 538.77 307.469 538.872 307.786C538.973 308.104 539.01 308.438 538.982 308.769L538.909 308.78Z" fill="#FBB040"/>
<path d="M535.255 341.521L535.161 341.604L512.141 325.824L514.512 324.098L535.255 341.521Z" fill="#ED8B00"/>
<path d="M506.569 325.821L480.928 341.415C480.911 341.408 480.896 341.399 480.884 341.386C480.871 341.374 480.862 341.359 480.855 341.342L504.477 324.074L506.569 325.821Z" fill="#ED8B00"/>
<path d="M538.319 306.931C538.056 306.646 537.736 306.418 537.379 306.263C537.022 306.108 536.637 306.03 536.248 306.032L485.661 305.867C485.201 305.874 484.748 305.984 484.335 306.188C484.054 306.334 483.798 306.526 483.579 306.755C483.056 307.229 482.731 307.883 482.668 308.584L506.911 328.921C507.459 329.379 508.144 329.642 508.859 329.668C509.573 329.694 510.276 329.482 510.856 329.066C517.587 324.23 538.713 308.967 538.91 308.76C538.961 308.096 538.749 307.44 538.319 306.931Z" fill="#ED8B00"/>
</g>
<path d="M528.932 416.052H467.876C467.386 416.052 466.916 415.858 466.57 415.512C466.224 415.167 466.029 414.698 466.029 414.21V362.91H528.932V416.052Z" fill="#0082FF"/>
<path d="M551.627 416.052H528.933V362.91H553.473V414.21C553.473 414.698 553.279 415.167 552.932 415.512C552.586 415.858 552.116 416.052 551.627 416.052Z" fill="#064679"/>
<path d="M528.933 362.908L537.842 351.391C538.013 351.17 538.233 350.99 538.484 350.865C538.735 350.741 539.011 350.675 539.292 350.673L561.663 350.59C561.839 350.588 562.012 350.637 562.162 350.73C562.312 350.822 562.431 350.956 562.507 351.116C562.583 351.274 562.612 351.452 562.59 351.627C562.567 351.801 562.496 351.966 562.383 352.101L553.473 362.908H528.933Z" fill="#064679"/>
<path d="M491.91 362.909L481.652 351.3C481.48 351.105 481.268 350.948 481.031 350.84C480.794 350.731 480.537 350.676 480.276 350.674L457.832 350.637C457.656 350.637 457.484 350.686 457.336 350.779C457.187 350.874 457.069 351.008 456.994 351.167C456.92 351.325 456.892 351.502 456.914 351.676C456.937 351.849 457.008 352.013 457.121 352.148L466.021 362.955L491.91 362.909Z" fill="#88C7FF"/>
<path d="M246.64 168.457H47.2771C45.4197 168.457 43.9141 169.96 43.9141 171.813C43.9141 173.666 45.4197 175.169 47.2771 175.169H246.64C248.498 175.169 250.003 173.666 250.003 171.813C250.003 169.96 248.498 168.457 246.64 168.457Z" fill="#C0D9EF"/>
<path d="M195.402 207.07H69.8086V413.254H195.402V207.07Z" fill="#064679"/>
<path d="M76.5063 267.43H169.759L187.304 277.37H60.0103L76.5063 267.43Z" fill="#064679"/>
<path d="M70.1328 264.844V277.371H60.0103L70.1328 264.844Z" fill="#032A49"/>
<path d="M195.225 264.77V277.371H202.893L195.225 264.77Z" fill="#032A49"/>
<path d="M176.311 268.879H74.0015V297.738H176.311V268.879Z" fill="#165485"/>
<path d="M177.377 270.133H72.5996V299.687H177.377V270.133Z" fill="#2A72AC"/>
<path d="M199.114 270.133H65.23V301.985H199.114V270.133Z" fill="#AED8FA"/>
<path d="M200.724 273.027H62.7305V305.857H200.724V273.027Z" fill="white"/>
<path d="M202.894 277.332H59.9849V310.162H202.894V277.332Z" fill="#319AFF"/>
<path d="M70.4912 293.749C70.4912 294.402 70.6852 295.041 71.0485 295.582C71.4119 296.125 71.9283 296.548 72.5326 296.798C73.1368 297.048 73.8017 297.113 74.4432 296.986C75.0846 296.859 75.6738 296.544 76.1363 296.083C76.5988 295.621 76.9137 295.034 77.0413 294.393C77.1689 293.753 77.1035 293.09 76.8532 292.487C76.6029 291.884 76.179 291.368 75.6352 291.006C75.0914 290.643 74.4521 290.449 73.798 290.449C72.9216 290.451 72.0817 290.799 71.4619 291.418C70.8422 292.037 70.4932 292.875 70.4912 293.749Z" fill="#0063C1"/>
<path d="M102.615 293.749C102.615 294.402 102.809 295.041 103.172 295.582C103.535 296.125 104.052 296.548 104.656 296.798C105.26 297.048 105.925 297.113 106.567 296.986C107.208 296.859 107.797 296.544 108.26 296.083C108.722 295.621 109.037 295.034 109.165 294.393C109.292 293.753 109.227 293.09 108.977 292.487C108.726 291.884 108.303 291.368 107.759 291.006C107.215 290.643 106.576 290.449 105.922 290.449C105.045 290.451 104.205 290.799 103.585 291.418C102.966 292.037 102.617 292.875 102.615 293.749Z" fill="#FBB040"/>
<path d="M86.5532 293.749C86.5532 294.402 86.7472 295.041 87.1105 295.582C87.4739 296.125 87.9903 296.548 88.5946 296.798C89.1988 297.048 89.8637 297.113 90.5052 296.986C91.1466 296.859 91.7359 296.544 92.1983 296.083C92.6608 295.621 92.9757 295.034 93.1033 294.393C93.2309 293.753 93.1655 293.09 92.9152 292.487C92.6649 291.884 92.241 291.368 91.6972 291.006C91.1534 290.643 90.5141 290.449 89.86 290.449C88.9836 290.451 88.1437 290.799 87.5239 291.418C86.9042 292.037 86.5552 292.875 86.5532 293.749Z" fill="#0063C1"/>
<path d="M199.421 350.918H66.1504V380.569H199.421V350.918Z" fill="#0082FF"/>
<path d="M79.8833 364.868C79.8833 365.384 80.0367 365.889 80.3241 366.318C80.6115 366.747 81.02 367.083 81.498 367.28C81.976 367.478 82.5019 367.529 83.0093 367.429C83.5167 367.328 83.9827 367.08 84.3486 366.714C84.7144 366.349 84.9635 365.884 85.0644 365.377C85.1653 364.871 85.1136 364.346 84.9156 363.869C84.7176 363.392 84.3823 362.985 83.9522 362.698C83.522 362.411 83.0163 362.258 82.499 362.258C81.8057 362.26 81.1413 362.535 80.6511 363.024C80.1609 363.513 79.8849 364.177 79.8833 364.868Z" fill="#FBB040"/>
<path d="M105.293 364.868C105.293 365.384 105.446 365.889 105.734 366.318C106.021 366.747 106.43 367.083 106.908 367.28C107.386 367.478 107.912 367.529 108.419 367.429C108.926 367.328 109.392 367.08 109.758 366.714C110.124 366.349 110.373 365.884 110.474 365.377C110.575 364.871 110.523 364.346 110.325 363.869C110.127 363.392 109.792 362.985 109.362 362.698C108.932 362.411 108.426 362.258 107.909 362.258C107.215 362.26 106.551 362.535 106.061 363.024C105.571 363.513 105.295 364.177 105.293 364.868Z" fill="#0063C1"/>
<path d="M92.5879 364.868C92.5879 365.384 92.7413 365.889 93.0287 366.318C93.3161 366.747 93.7246 367.083 94.2026 367.28C94.6805 367.478 95.2065 367.529 95.7139 367.429C96.2213 367.328 96.6873 367.08 97.0531 366.714C97.419 366.349 97.6681 365.884 97.769 365.377C97.8699 364.871 97.8181 364.346 97.6202 363.869C97.4222 363.392 97.0869 362.985 96.6568 362.698C96.2266 362.411 95.7209 362.258 95.2036 362.258C94.5103 362.26 93.8459 362.535 93.3557 363.024C92.8655 363.513 92.5895 364.177 92.5879 364.868Z" fill="#0063C1"/>
<path d="M199.421 386.402H66.1504V416.054H199.421V386.402Z" fill="#0082FF"/>
<path d="M79.8833 400.353C79.8833 400.869 80.0367 401.374 80.3241 401.803C80.6115 402.232 81.02 402.566 81.498 402.764C81.976 402.961 82.5019 403.013 83.0093 402.912C83.5167 402.811 83.9827 402.563 84.3486 402.198C84.7144 401.833 84.9635 401.367 85.0644 400.862C85.1653 400.356 85.1136 399.831 84.9156 399.354C84.7176 398.877 84.3823 398.469 83.9522 398.182C83.522 397.895 83.0163 397.742 82.499 397.742C81.8057 397.744 81.1413 398.02 80.6511 398.509C80.1609 398.998 79.8849 399.66 79.8833 400.353Z" fill="#FBB040"/>
<path d="M105.293 400.353C105.293 400.869 105.446 401.374 105.734 401.803C106.021 402.232 106.43 402.566 106.908 402.764C107.386 402.961 107.912 403.013 108.419 402.912C108.926 402.811 109.392 402.563 109.758 402.198C110.124 401.833 110.373 401.367 110.474 400.862C110.575 400.356 110.523 399.831 110.325 399.354C110.127 398.877 109.792 398.469 109.362 398.182C108.932 397.895 108.426 397.742 107.909 397.742C107.215 397.744 106.551 398.02 106.061 398.509C105.571 398.998 105.295 399.66 105.293 400.353Z" fill="#0063C1"/>
<path d="M92.5879 400.353C92.5879 400.869 92.7413 401.374 93.0287 401.803C93.3161 402.232 93.7246 402.566 94.2026 402.764C94.6805 402.961 95.2065 403.013 95.7139 402.912C96.2213 402.811 96.6873 402.563 97.0531 402.198C97.419 401.833 97.6681 401.367 97.769 400.862C97.8699 400.356 97.8181 399.831 97.6202 399.354C97.4222 398.877 97.0869 398.469 96.6568 398.182C96.2266 397.895 95.7209 397.742 95.2036 397.742C94.5103 397.744 93.8459 398.02 93.3557 398.509C92.8655 398.998 92.5895 399.66 92.5879 400.353Z" fill="#0063C1"/>
<path d="M199.422 315.438H66.1509V345.089H199.422V315.438Z" fill="#0082FF"/>
<path d="M105.293 329.364C105.293 329.88 105.447 330.385 105.734 330.814C106.022 331.243 106.43 331.579 106.908 331.776C107.386 331.974 107.912 332.025 108.419 331.924C108.927 331.824 109.393 331.575 109.759 331.21C110.125 330.845 110.374 330.38 110.475 329.873C110.575 329.367 110.524 328.843 110.326 328.366C110.128 327.889 109.792 327.481 109.362 327.194C108.932 326.908 108.426 326.754 107.909 326.754C107.216 326.756 106.551 327.031 106.061 327.52C105.571 328.009 105.295 328.673 105.293 329.364Z" fill="#FBB040"/>
<path d="M79.8838 329.364C79.8838 329.88 80.0372 330.385 80.3246 330.814C80.612 331.243 81.0205 331.579 81.4985 331.776C81.9764 331.974 82.5024 332.025 83.0098 331.924C83.5172 331.824 83.9832 331.575 84.349 331.21C84.7149 330.845 84.964 330.38 85.0649 329.873C85.1658 329.367 85.114 328.843 84.9161 328.366C84.7181 327.889 84.3828 327.481 83.9527 327.194C83.5225 326.908 83.0168 326.754 82.4995 326.754C81.8062 326.756 81.1418 327.031 80.6516 327.52C80.1614 328.009 79.8854 328.673 79.8838 329.364Z" fill="#0063C1"/>
<path d="M92.5884 329.364C92.5884 329.88 92.7418 330.385 93.0292 330.814C93.3166 331.243 93.7251 331.579 94.2031 331.776C94.681 331.974 95.207 332.025 95.7144 331.924C96.2217 331.824 96.6878 331.575 97.0536 331.21C97.4194 330.845 97.6686 330.38 97.7695 329.873C97.8704 329.367 97.8186 328.843 97.6207 328.366C97.4227 327.889 97.0874 327.481 96.6573 327.194C96.2271 326.908 95.7214 326.754 95.2041 326.754C94.5108 326.756 93.8464 327.031 93.3562 327.52C92.866 328.009 92.5899 328.673 92.5884 329.364Z" fill="#0063C1"/>
<path d="M199.421 228.973H66.1504V258.624H199.421V228.973Z" fill="#0082FF"/>
<path d="M79.8833 244.285C79.8833 244.802 80.0367 245.306 80.3241 245.735C80.6115 246.165 81.02 246.5 81.498 246.697C81.976 246.895 82.5019 246.947 83.0093 246.846C83.5167 246.745 83.9827 246.497 84.3486 246.131C84.7144 245.766 84.9635 245.301 85.0644 244.794C85.1653 244.288 85.1136 243.763 84.9156 243.286C84.7176 242.809 84.3823 242.402 83.9522 242.115C83.522 241.828 83.0163 241.676 82.499 241.676C81.8057 241.677 81.1413 241.952 80.6511 242.441C80.1609 242.931 79.8849 243.594 79.8833 244.285Z" fill="#0063C1"/>
<path d="M105.293 244.285C105.293 244.802 105.446 245.306 105.734 245.735C106.021 246.165 106.43 246.5 106.908 246.697C107.386 246.895 107.912 246.947 108.419 246.846C108.926 246.745 109.392 246.497 109.758 246.131C110.124 245.766 110.373 245.301 110.474 244.794C110.575 244.288 110.523 243.763 110.325 243.286C110.127 242.809 109.792 242.402 109.362 242.115C108.932 241.828 108.426 241.676 107.909 241.676C107.215 241.677 106.551 241.952 106.061 242.441C105.571 242.931 105.295 243.594 105.293 244.285Z" fill="#0063C1"/>
<path d="M92.5879 244.285C92.5879 244.802 92.7413 245.306 93.0287 245.735C93.3161 246.165 93.7246 246.5 94.2026 246.697C94.6805 246.895 95.2065 246.947 95.7139 246.846C96.2213 246.745 96.6873 246.497 97.0531 246.131C97.419 245.766 97.6681 245.301 97.769 244.794C97.8699 244.288 97.8181 243.763 97.6202 243.286C97.4222 242.809 97.0869 242.402 96.6568 242.115C96.2266 241.828 95.7209 241.676 95.2036 241.676C94.5103 241.677 93.8459 241.952 93.3557 242.441C92.8655 242.931 92.5895 243.594 92.5879 244.285Z" fill="#0063C1"/>
<path d="M199.421 193.18H66.1504V222.831H199.421V193.18Z" fill="#0082FF"/>
<path d="M79.8833 207.876C79.8833 208.392 80.0367 208.897 80.3241 209.326C80.6115 209.755 81.02 210.089 81.498 210.287C81.976 210.485 82.5019 210.536 83.0093 210.436C83.5167 210.335 83.9827 210.086 84.3486 209.721C84.7144 209.357 84.9635 208.892 85.0644 208.385C85.1653 207.879 85.1136 207.354 84.9156 206.877C84.7176 206.4 84.3823 205.992 83.9522 205.706C83.522 205.419 83.0163 205.266 82.499 205.266C81.8057 205.268 81.1413 205.543 80.6511 206.032C80.1609 206.521 79.8849 207.185 79.8833 207.876Z" fill="#0063C1"/>
<path d="M105.293 207.876C105.293 208.392 105.446 208.897 105.734 209.326C106.021 209.755 106.43 210.089 106.908 210.287C107.386 210.485 107.912 210.536 108.419 210.436C108.926 210.335 109.392 210.086 109.758 209.721C110.124 209.357 110.373 208.892 110.474 208.385C110.575 207.879 110.523 207.354 110.325 206.877C110.127 206.4 109.792 205.992 109.362 205.706C108.932 205.419 108.426 205.266 107.909 205.266C107.215 205.268 106.551 205.543 106.061 206.032C105.571 206.521 105.295 207.185 105.293 207.876Z" fill="#0063C1"/>
<path d="M92.5879 207.876C92.5879 208.392 92.7413 208.897 93.0287 209.326C93.3161 209.755 93.7246 210.089 94.2026 210.287C94.6805 210.485 95.2065 210.536 95.7139 210.436C96.2213 210.335 96.6873 210.086 97.0531 209.721C97.419 209.357 97.6681 208.892 97.769 208.385C97.8699 207.879 97.8181 207.354 97.6202 206.877C97.4222 206.4 97.0869 205.992 96.6568 205.706C96.2266 205.419 95.7209 205.266 95.2036 205.266C94.5103 205.268 93.8459 205.543 93.3557 206.032C92.8655 206.521 92.5895 207.185 92.5879 207.876Z" fill="#0063C1"/>
<path d="M127.025 175.168H122.541V223.66H127.025V175.168Z" fill="#C0D9EF"/>
<path d="M117.219 228.137L98.2378 244.749L101.127 248.036L120.109 231.425L117.219 228.137Z" fill="#C0D9EF"/>
<path d="M133.224 228.07L130.335 231.358L149.316 247.969L152.206 244.681L133.224 228.07Z" fill="#C0D9EF"/>
<path d="M152.434 246.66L137.554 264.688C137.176 265.116 136.649 265.378 136.085 265.418C135.521 265.458 134.964 265.274 134.531 264.904C134.097 264.534 133.822 264.007 133.763 263.434C133.704 262.862 133.865 262.288 134.213 261.834L149.066 243.797L152.434 246.66Z" fill="#C0D9EF"/>
<g filter="url(#filter1_d_2870_125289)">
<path d="M197.898 262.023H67.2407V270.129H197.898V262.023Z" fill="#FBB040"/>
</g>
<path d="M144.961 246.034C144.961 246.771 145.202 247.493 145.654 248.105C146.105 248.719 146.747 249.196 147.498 249.479C148.249 249.761 149.076 249.835 149.873 249.691C150.671 249.547 151.403 249.192 151.978 248.67C152.553 248.149 152.944 247.485 153.103 246.761C153.261 246.038 153.18 245.288 152.869 244.607C152.558 243.925 152.031 243.343 151.355 242.933C150.679 242.524 149.884 242.305 149.071 242.305C147.982 242.308 146.938 242.701 146.168 243.399C145.397 244.099 144.963 245.046 144.961 246.034Z" fill="#E5F1FB"/>
<path d="M132.041 237.084H117.525C115.685 237.079 113.923 236.37 112.622 235.113C111.321 233.855 110.588 232.15 110.583 230.372C110.588 228.593 111.321 226.889 112.622 225.631C113.923 224.374 115.685 223.665 117.525 223.66H132.041C133.881 223.665 135.643 224.374 136.944 225.631C138.244 226.889 138.977 228.593 138.982 230.372C138.977 232.15 138.244 233.855 136.944 235.113C135.643 236.37 133.881 237.079 132.041 237.084Z" fill="#C0D9EF"/>
<path d="M121.046 230.05C121.037 230.712 120.855 231.356 120.521 231.901C120.187 232.446 119.717 232.868 119.17 233.115C118.623 233.361 118.024 233.421 117.447 233.285C116.87 233.151 116.341 232.827 115.927 232.356C115.514 231.884 115.233 231.287 115.122 230.637C115.01 229.987 115.072 229.315 115.299 228.705C115.527 228.094 115.91 227.574 116.4 227.207C116.891 226.84 117.467 226.645 118.057 226.645C118.855 226.653 119.618 227.016 120.178 227.653C120.739 228.292 121.051 229.154 121.046 230.05Z" fill="#E5F1FB"/>
<path d="M135.993 230.05C135.983 230.712 135.777 231.357 135.401 231.902C135.026 232.447 134.496 232.87 133.88 233.116C133.264 233.362 132.589 233.421 131.94 233.286C131.291 233.149 130.696 232.824 130.231 232.352C129.766 231.88 129.452 231.282 129.327 230.631C129.202 229.98 129.273 229.308 129.531 228.698C129.788 228.088 130.221 227.568 130.774 227.202C131.327 226.837 131.976 226.643 132.64 226.645C133.084 226.649 133.523 226.739 133.932 226.913C134.341 227.087 134.712 227.338 135.023 227.654C135.335 227.971 135.581 228.345 135.747 228.756C135.913 229.167 135.997 229.607 135.993 230.05Z" fill="#E5F1FB"/>
<path d="M97.1313 246.66L112.599 264.688C112.993 265.116 113.542 265.378 114.13 265.418C114.717 265.458 115.298 265.274 115.75 264.904C116.201 264.534 116.488 264.007 116.55 263.434C116.611 262.862 116.443 262.288 116.08 261.834L100.575 243.797L97.1313 246.66Z" fill="#C0D9EF"/>
<path d="M105.352 246.026C105.354 246.763 105.114 247.485 104.664 248.099C104.213 248.714 103.572 249.193 102.821 249.477C102.07 249.76 101.244 249.835 100.446 249.692C99.6476 249.549 98.9143 249.195 98.3385 248.673C97.7628 248.152 97.3704 247.488 97.211 246.764C97.0517 246.041 97.1325 245.29 97.4433 244.609C97.7542 243.927 98.281 243.345 98.9572 242.934C99.6333 242.524 100.428 242.305 101.242 242.305C102.33 242.305 103.374 242.697 104.145 243.394C104.915 244.092 105.35 245.038 105.352 246.026Z" fill="#E5F1FB"/>
<g filter="url(#filter2_d_2870_125289)">
<path d="M408.219 424.179H241.663C240.026 424.2 238.403 423.878 236.9 423.232C235.396 422.586 234.045 421.633 232.935 420.433C231.825 419.234 230.98 417.814 230.455 416.267C229.93 414.719 229.737 413.08 229.889 411.453L250.288 144.645C250.603 141.208 252.179 138.009 254.713 135.66C257.247 133.312 260.561 131.98 264.019 131.919H430.53C432.167 131.898 433.791 132.22 435.295 132.866C436.799 133.511 438.15 134.465 439.262 135.664C440.373 136.864 441.219 138.283 441.745 139.83C442.271 141.378 442.466 143.017 442.316 144.645L421.916 411.453C421.599 414.884 420.028 418.077 417.501 420.424C414.975 422.771 411.671 424.108 408.219 424.179Z" fill="#C0D9EF"/>
</g>
<g filter="url(#filter3_d_2870_125289)">
<path d="M405.712 424.179H239.189C237.552 424.2 235.929 423.877 234.424 423.232C232.92 422.586 231.569 421.633 230.458 420.434C229.347 419.234 228.5 417.815 227.974 416.268C227.448 414.72 227.254 413.081 227.404 411.453L247.803 144.645C248.121 141.209 249.697 138.011 252.231 135.663C254.764 133.315 258.077 131.982 261.534 131.919H428.057C429.693 131.898 431.316 132.22 432.82 132.866C434.323 133.512 435.674 134.465 436.784 135.665C437.895 136.864 438.74 138.284 439.265 139.831C439.789 141.379 439.982 143.018 439.831 144.645L419.465 411.453C419.149 414.894 417.57 418.096 415.032 420.445C412.493 422.794 409.174 424.124 405.712 424.179Z" fill="#EFEFEF"/>
</g>
<path d="M239.538 419.934C238.445 419.951 237.361 419.739 236.356 419.31C235.351 418.881 234.447 418.246 233.705 417.445C232.962 416.645 232.397 415.698 232.045 414.664C231.694 413.631 231.565 412.537 231.666 411.45L251.796 148.177C252.003 145.892 253.046 143.764 254.726 142.199C256.407 140.634 258.606 139.741 260.905 139.693H427.461C428.555 139.674 429.64 139.885 430.646 140.313C431.652 140.741 432.556 141.377 433.299 142.177C434.042 142.979 434.607 143.927 434.958 144.96C435.308 145.994 435.436 147.09 435.333 148.177L415.181 411.45C414.974 413.742 413.924 415.877 412.234 417.443C410.544 419.009 408.333 419.896 406.028 419.934H239.538Z" fill="#0082FF"/>
<path d="M404.847 183.989H285.645C284.998 183.994 284.357 183.864 283.763 183.608C283.169 183.351 282.636 182.974 282.197 182.499C281.759 182.025 281.425 181.463 281.216 180.852C281.008 180.241 280.931 179.593 280.989 178.95C281.116 177.591 281.74 176.328 282.742 175.401C283.744 174.473 285.054 173.947 286.421 173.922H405.623C406.269 173.915 406.91 174.043 407.504 174.298C408.097 174.554 408.631 174.93 409.07 175.404C409.508 175.878 409.843 176.438 410.051 177.049C410.259 177.66 410.337 178.307 410.278 178.95C410.154 180.31 409.531 181.576 408.528 182.506C407.526 183.436 406.215 183.964 404.847 183.989Z" fill="#02355E"/>
<path d="M354.027 137.106H334.775C334.618 137.107 334.462 137.074 334.317 137.011C334.173 136.948 334.043 136.854 333.937 136.738C333.831 136.622 333.751 136.485 333.702 136.335C333.652 136.185 333.635 136.028 333.651 135.871C333.681 135.537 333.835 135.226 334.082 134.997C334.329 134.769 334.652 134.641 334.989 134.637H354.241C354.399 134.636 354.555 134.668 354.699 134.732C354.843 134.794 354.973 134.887 355.079 135.004C355.185 135.121 355.265 135.257 355.315 135.407C355.364 135.557 355.381 135.714 355.366 135.871C355.335 136.205 355.181 136.517 354.934 136.745C354.687 136.973 354.364 137.102 354.027 137.106Z" fill="#D8D8D8"/>
<path d="M285.172 178.947C285.342 177.167 285.133 175.371 284.56 173.678C283.987 171.983 283.062 170.429 281.845 169.115C280.629 167.802 279.149 166.76 277.502 166.057C275.854 165.353 274.077 165.004 272.285 165.033H393.264C395.056 165.004 396.833 165.353 398.481 166.057C400.128 166.76 401.608 167.802 402.824 169.115C404.041 170.429 404.966 171.983 405.539 173.678C406.112 175.371 406.321 177.167 406.151 178.947H285.172Z" fill="#E5F3FD"/>
<path d="M272.286 165.031C268.504 165.093 264.878 166.549 262.107 169.118C259.335 171.686 257.614 175.187 257.273 178.946L244.903 341.089C244.567 344.85 242.847 348.354 240.074 350.923C237.302 353.493 233.674 354.947 229.89 355.005H350.869C354.653 354.947 358.281 353.493 361.053 350.923C363.826 348.354 365.546 344.85 365.882 341.089L378.252 178.946C378.588 175.187 380.306 171.685 383.076 169.116C385.846 166.546 389.472 165.091 393.253 165.031H272.286Z" fill="#C9E8FF"/>
<path d="M337.971 341.094C337.799 342.876 338.007 344.673 338.58 346.369C339.154 348.065 340.079 349.621 341.297 350.934C342.515 352.248 343.997 353.29 345.647 353.992C347.296 354.695 349.076 355.041 350.869 355.009H229.868C228.076 355.037 226.299 354.689 224.651 353.986C223.004 353.282 221.524 352.239 220.307 350.926C219.091 349.613 218.166 348.058 217.593 346.365C217.02 344.67 216.811 342.874 216.98 341.094H337.971Z" fill="#E5F3FD"/>
<path d="M267.146 337.893C267.652 331.968 265.74 327.176 259.78 327.176H352.937C358.864 327.176 363.328 332.584 360.281 337.893H267.146Z" fill="#70BEF2"/>
<path d="M337.971 341.091C338.304 337.331 340.022 333.828 342.793 331.257C345.564 328.688 349.19 327.234 352.973 327.176H231.994C228.211 327.236 224.584 328.691 221.812 331.259C219.04 333.829 217.319 337.33 216.981 341.091H337.971Z" fill="#E5F3FD"/>
<path d="M395.166 381.29H256.284C255.816 381.292 255.353 381.196 254.924 381.01C254.496 380.824 254.11 380.55 253.793 380.207C253.476 379.864 253.234 379.459 253.082 379.018C252.93 378.577 252.871 378.109 252.91 377.643C253.004 376.657 253.458 375.739 254.185 375.064C254.913 374.39 255.864 374.005 256.857 373.984H395.739C396.208 373.983 396.672 374.079 397.101 374.266C397.531 374.453 397.917 374.728 398.234 375.072C398.552 375.415 398.794 375.823 398.945 376.265C399.096 376.708 399.153 377.177 399.113 377.643C399.021 378.63 398.568 379.548 397.839 380.221C397.111 380.894 396.158 381.275 395.166 381.29Z" fill="#004282"/>
<path d="M325.004 398.852H254.945C254.476 398.854 254.012 398.759 253.583 398.571C253.153 398.384 252.767 398.11 252.45 397.766C252.132 397.422 251.89 397.015 251.739 396.572C251.588 396.129 251.531 395.66 251.571 395.194C251.662 394.209 252.114 393.292 252.841 392.62C253.567 391.947 254.516 391.565 255.507 391.547H325.6C326.068 391.545 326.531 391.641 326.96 391.827C327.389 392.014 327.774 392.287 328.091 392.63C328.408 392.973 328.651 393.378 328.803 393.819C328.955 394.261 329.013 394.729 328.974 395.194C328.882 396.185 328.426 397.108 327.693 397.784C326.96 398.459 326.002 398.84 325.004 398.852Z" fill="#004282"/>
<path d="M265.403 210.172H268.776L267.933 221.281H264.48L265.403 210.172Z" fill="#3F9FE8"/>
<path d="M271.319 210.172H274.535L278.257 216.322L278.718 210.172H281.968L281.113 221.281H277.875L274.164 215.188L273.703 221.281H270.464L271.319 210.172Z" fill="#3F9FE8"/>
<path d="M283.159 210.172H286.768L288.669 218.173L291.75 210.172H295.248L290.266 221.281H286.532L283.159 210.172Z" fill="#3F9FE8"/>
<path d="M294.958 215.735C294.954 214.941 295.115 214.155 295.43 213.426C295.746 212.698 296.21 212.042 296.792 211.502C297.374 210.961 298.062 210.546 298.813 210.284C299.564 210.022 300.361 209.917 301.154 209.978C301.914 209.919 302.677 210.022 303.394 210.279C304.112 210.537 304.766 210.943 305.315 211.471C305.801 212.04 306.159 212.708 306.364 213.428C306.57 214.149 306.618 214.904 306.507 215.645C306.457 216.763 306.145 217.855 305.596 218.832C305.108 219.656 304.399 220.328 303.549 220.773C302.577 221.261 301.499 221.499 300.412 221.468C299.353 221.507 298.299 221.304 297.33 220.874C296.526 220.455 295.876 219.79 295.475 218.978C295.008 217.964 294.829 216.842 294.958 215.735ZM298.399 215.735C298.249 216.569 298.405 217.429 298.837 218.158C299.036 218.402 299.289 218.595 299.576 218.721C299.863 218.848 300.177 218.905 300.49 218.888C300.819 218.905 301.148 218.849 301.453 218.724C301.758 218.601 302.032 218.411 302.256 218.169C302.798 217.419 303.082 216.514 303.066 215.589C303.192 214.81 303.028 214.011 302.605 213.345C302.404 213.101 302.148 212.91 301.859 212.785C301.57 212.66 301.255 212.606 300.94 212.626C300.618 212.617 300.297 212.678 300 212.804C299.704 212.93 299.437 213.118 299.22 213.356C298.694 214.042 298.406 214.881 298.399 215.746V215.735Z" fill="#3F9FE8"/>
<path d="M308.912 210.172H312.353L311.509 221.281H308.057L308.912 210.172Z" fill="#3F9FE8"/>
<path d="M321.731 216.732L324.677 217.641C324.448 218.413 324.066 219.13 323.552 219.751C323.087 220.307 322.498 220.75 321.832 221.041C321.036 221.347 320.188 221.492 319.335 221.467C318.334 221.506 317.336 221.325 316.411 220.94C315.612 220.538 314.965 219.888 314.567 219.088C314.048 218.047 313.845 216.877 313.982 215.722C314.018 214.131 314.662 212.614 315.782 211.48C316.958 210.448 318.491 209.916 320.055 209.999C321.199 209.925 322.335 210.225 323.294 210.851C324.11 211.508 324.671 212.429 324.879 213.455L321.798 214.129C321.745 213.868 321.65 213.618 321.517 213.388C321.35 213.134 321.122 212.925 320.853 212.781C320.573 212.634 320.259 212.561 319.943 212.569C319.578 212.563 319.218 212.646 318.893 212.81C318.567 212.974 318.287 213.215 318.076 213.511C317.655 214.184 317.433 214.962 317.435 215.756C317.279 216.615 317.409 217.502 317.806 218.281C317.984 218.512 318.217 218.696 318.484 218.816C318.751 218.935 319.043 218.986 319.335 218.965C319.614 218.983 319.894 218.943 320.157 218.85C320.421 218.755 320.661 218.607 320.865 218.415C321.298 217.941 321.596 217.36 321.731 216.732Z" fill="#3F9FE8"/>
<path d="M326.916 210.172H336.137L335.958 212.54H330.177L330.042 214.313H335.407L335.227 216.557H329.874L329.705 218.802H335.643L335.452 221.315H326.062L326.916 210.172Z" fill="#3F9FE8"/>
<path d="M357.953 305.694H257.947L258.16 302.922H358.167L357.953 305.694Z" fill="#3F9FE8"/>
<path d="M363.838 241.533H263.832L264.046 238.762H364.052L363.838 241.533Z" fill="#3F9FE8"/>
<path d="M360.101 289.767H260.095L260.309 286.996H360.315L360.101 289.767Z" fill="#3F9FE8"/>
<path d="M361.467 273.838H261.46L261.674 271.066H361.68L361.467 273.838Z" fill="#3F9FE8"/>
<path d="M362.249 257.916H262.243L262.456 255.145H362.462L362.249 257.916Z" fill="#3F9FE8"/>
<path d="M346.596 183.988H367.388L366.444 196.354H345.651L346.596 183.988Z" fill="#E5F3FD"/>
<path d="M403.829 426.591C412.132 417.288 411.944 403.599 403.411 396.014C394.877 388.43 381.228 389.822 372.926 399.125C364.623 408.428 364.81 422.117 373.344 429.702C381.877 437.286 395.526 435.894 403.829 426.591Z" fill="#FBB040" stroke="#ED8B00" stroke-width="5" stroke-miterlimit="10"/>
<path d="M397.349 406.57L391.974 407.412C391.838 406.914 391.634 406.438 391.366 405.998C391.091 405.669 390.75 405.402 390.366 405.211L390.051 409.342C392.877 410.09 394.751 410.908 395.674 411.799C396.259 412.359 396.706 413.047 396.981 413.807C397.256 414.569 397.351 415.383 397.259 416.187C397.151 417.214 396.796 418.199 396.225 419.059C395.248 420.687 393.714 421.906 391.906 422.494C390.936 422.787 389.929 422.945 388.915 422.965L388.701 425.669H386.666L386.88 422.965C385.728 422.898 384.592 422.667 383.506 422.28C382.704 421.979 381.973 421.517 381.358 420.922C380.8 420.385 380.353 419.746 380.042 419.037C379.72 418.261 379.523 417.44 379.458 416.602L385.26 415.929C385.296 416.639 385.479 417.335 385.8 417.971C386.139 418.46 386.606 418.849 387.149 419.093L387.532 414.044C386.168 413.691 384.837 413.225 383.551 412.652C382.735 412.217 382.061 411.559 381.605 410.756C381.068 409.797 380.844 408.694 380.964 407.602C381.014 406.788 381.225 405.991 381.586 405.259C381.947 404.527 382.451 403.874 383.067 403.337C384.6 402.1 386.516 401.429 388.488 401.441L388.6 400.027H390.681L390.568 401.441C392.277 401.436 393.945 401.966 395.336 402.956C396.444 403.861 397.163 405.154 397.349 406.57ZM388.285 405.134C387.784 405.262 387.326 405.522 386.958 405.885C386.7 406.175 386.546 406.542 386.52 406.929C386.48 407.324 386.579 407.721 386.801 408.051C387.115 408.427 387.534 408.7 388.004 408.837L388.285 405.134ZM389.297 419.228C389.986 419.114 390.627 418.802 391.142 418.33C391.529 417.96 391.765 417.46 391.805 416.928C391.842 416.483 391.705 416.039 391.423 415.693C390.938 415.186 390.324 414.821 389.646 414.638L389.297 419.228Z" fill="#ED8B00"/>
<path d="M438.717 425.221C448.763 413.966 448.538 397.403 438.214 388.227C427.89 379.051 411.377 380.738 401.331 391.993C391.285 403.248 391.51 419.811 401.834 428.987C412.158 438.162 428.671 436.477 438.717 425.221Z" fill="#FBB040" stroke="#ED8B00" stroke-width="5" stroke-miterlimit="10"/>
<path d="M430.801 401.003L424.301 402.023C424.141 401.421 423.891 400.846 423.559 400.318C423.228 399.92 422.819 399.596 422.355 399.364L421.973 404.369C425.392 405.305 427.641 406.291 428.72 407.331C429.433 408.008 429.978 408.841 430.312 409.764C430.645 410.687 430.759 411.676 430.643 412.651C430.549 413.879 430.164 415.068 429.519 416.118C428.33 418.085 426.475 419.561 424.29 420.282C423.109 420.626 421.888 420.815 420.657 420.843L420.41 424.119H417.891L418.138 420.843C416.758 420.755 415.396 420.479 414.09 420.023C413.121 419.654 412.238 419.093 411.492 418.374C410.827 417.729 410.286 416.969 409.895 416.13C409.517 415.186 409.278 414.191 409.187 413.178L416.215 412.359C416.259 413.222 416.481 414.066 416.868 414.838C417.279 415.427 417.842 415.892 418.498 416.186L418.959 410.069C417.311 409.641 415.702 409.078 414.146 408.386C413.166 407.875 412.351 407.097 411.796 406.142C411.141 404.983 410.87 403.648 411.02 402.327C411.079 401.341 411.334 400.377 411.771 399.491C412.207 398.605 412.816 397.813 413.562 397.165C415.421 395.682 417.738 394.89 420.118 394.921L420.253 393.203H422.839L422.704 394.921C424.755 394.884 426.767 395.483 428.462 396.637C429.769 397.744 430.605 399.303 430.801 401.003ZM419.836 399.274C419.232 399.429 418.681 399.742 418.24 400.183C417.924 400.534 417.738 400.981 417.711 401.452C417.656 401.919 417.776 402.391 418.048 402.776C418.423 403.234 418.929 403.567 419.499 403.729L419.836 399.274ZM421.062 416.32C421.907 416.177 422.69 415.786 423.311 415.198C423.78 414.751 424.068 414.148 424.121 413.503C424.166 412.961 424.001 412.423 423.66 411.999C423.068 411.388 422.323 410.946 421.501 410.72L421.062 416.32Z" fill="#ED8B00"/>
<path d="M371.327 81.2578H318.509C310.748 81.2578 304.456 87.5364 304.456 95.2815V95.2816C304.456 103.027 310.748 109.305 318.509 109.305H371.327C379.089 109.305 385.381 103.027 385.381 95.2816V95.2815C385.381 87.5364 379.089 81.2578 371.327 81.2578Z" fill="white" fill-opacity="0.33"/>
<path d="M356.519 95.281C356.519 88.8846 361.715 83.6992 368.125 83.6992C374.535 83.6992 379.732 88.8846 379.732 95.281C379.732 101.677 374.535 106.863 368.125 106.863C361.715 106.863 356.519 101.677 356.519 95.281Z" fill="#FBB040"/>
<defs>
<filter id="filter0_d_2870_125289" x="459.074" y="284.855" width="100.917" height="78.3867" filterUnits="userSpaceOnUse" color-interpolation-filters="sRGB">
<feFlood flood-opacity="0" result="BackgroundImageFix"/>
<feColorMatrix in="SourceAlpha" type="matrix" values="0 0 0 0 0 0 0 0 0 0 0 0 0 0 0 0 0 0 127 0" result="hardAlpha"/>
<feOffset/>
<feGaussianBlur stdDeviation="10.5"/>
<feColorMatrix type="matrix" values="0 0 0 0 0 0 0 0 0 0.266803 0 0 0 0 0.525 0 0 0 0.72 0"/>
<feBlend mode="normal" in2="BackgroundImageFix" result="effect1_dropShadow_2870_125289"/>
<feBlend mode="normal" in="SourceGraphic" in2="effect1_dropShadow_2870_125289" result="shape"/>
</filter>
<filter id="filter1_d_2870_125289" x="46.2407" y="241.023" width="172.657" height="50.1055" filterUnits="userSpaceOnUse" color-interpolation-filters="sRGB">
<feFlood flood-opacity="0" result="BackgroundImageFix"/>
<feColorMatrix in="SourceAlpha" type="matrix" values="0 0 0 0 0 0 0 0 0 0 0 0 0 0 0 0 0 0 127 0" result="hardAlpha"/>
<feOffset/>
<feGaussianBlur stdDeviation="10.5"/>
<feColorMatrix type="matrix" values="0 0 0 0 0 0 0 0 0 0.266803 0 0 0 0 0.525 0 0 0 0.72 0"/>
<feBlend mode="normal" in2="BackgroundImageFix" result="effect1_dropShadow_2870_125289"/>
<feBlend mode="normal" in="SourceGraphic" in2="effect1_dropShadow_2870_125289" result="shape"/>
</filter>
<filter id="filter2_d_2870_125289" x="208.839" y="110.918" width="254.526" height="334.262" filterUnits="userSpaceOnUse" color-interpolation-filters="sRGB">
<feFlood flood-opacity="0" result="BackgroundImageFix"/>
<feColorMatrix in="SourceAlpha" type="matrix" values="0 0 0 0 0 0 0 0 0 0 0 0 0 0 0 0 0 0 127 0" result="hardAlpha"/>
<feOffset/>
<feGaussianBlur stdDeviation="10.5"/>
<feColorMatrix type="matrix" values="0 0 0 0 0 0 0 0 0 0.266803 0 0 0 0 0.525 0 0 0 0.72 0"/>
<feBlend mode="normal" in2="BackgroundImageFix" result="effect1_dropShadow_2870_125289"/>
<feBlend mode="normal" in="SourceGraphic" in2="effect1_dropShadow_2870_125289" result="shape"/>
</filter>
<filter id="filter3_d_2870_125289" x="206.355" y="110.918" width="254.526" height="334.262" filterUnits="userSpaceOnUse" color-interpolation-filters="sRGB">
<feFlood flood-opacity="0" result="BackgroundImageFix"/>
<feColorMatrix in="SourceAlpha" type="matrix" values="0 0 0 0 0 0 0 0 0 0 0 0 0 0 0 0 0 0 127 0" result="hardAlpha"/>
<feOffset/>
<feGaussianBlur stdDeviation="10.5"/>
<feColorMatrix type="matrix" values="0 0 0 0 0 0 0 0 0 0.266803 0 0 0 0 0.525 0 0 0 0.72 0"/>
<feBlend mode="normal" in2="BackgroundImageFix" result="effect1_dropShadow_2870_125289"/>
<feBlend mode="normal" in="SourceGraphic" in2="effect1_dropShadow_2870_125289" result="shape"/>
</filter>
</defs>
</svg>
